<svg xmlns="http://www.w3.org/2000/svg" viewBox="0 0 393.8 345.21"><defs><style>.cls-1,.cls-5{fill:#407bff;}.cls-2,.cls-6,.cls-7{fill:#fff;}.cls-2{opacity:0.9;}.cls-3{fill:#f5f5f5;}.cls-4{fill:#263238;}.cls-5,.cls-7{opacity:0.3;}.cls-8{opacity:0.2;}</style></defs><title>Asset 1</title><g id="Layer_2" data-name="Layer 2"><g id="Background_Simple" data-name="Background Simple"><path class="cls-1" d="M365.51,43.08c39.29,31.83,35.52,75.55,1.85,100.46-16.15,12-48.67,9.64-67.17,18.08-24.13,11-36.38,31.39-54.87,47.66-46,40.48-60.95,20.47-113.32,21-36.81.37-71.81,31.4-108.69,10.1-45.08-26-17.17-78.18,19.64-98.31C85.22,119,58.63,64.6,119.43,24.56,179.25-14.82,307.16-5.54,365.51,43.08Z"/><path class="cls-2" d="M365.51,43.08c39.29,31.83,35.52,75.55,1.85,100.46-16.15,12-48.67,9.64-67.17,18.08-24.13,11-36.38,31.39-54.87,47.66-46,40.48-60.95,20.47-113.32,21-36.81.37-71.81,31.4-108.69,10.1-45.08-26-17.17-78.18,19.64-98.31C85.22,119,58.63,64.6,119.43,24.56,179.25-14.82,307.16-5.54,365.51,43.08Z"/></g><g id="Shadow"><ellipse id="_Path_" data-name="&lt;Path&gt;" class="cls-3" cx="196.6" cy="333.89" rx="193.89" ry="11.32"/></g><g id="Oops_" data-name="Oops!"><path class="cls-4" d="M33.32,38.3c-1-4.41-.56-8.11,1.34-11.13s5-5,9.41-6,8.22-.61,11.2,1.25,5,5,5.95,9.3a17.15,17.15,0,0,1,.17,8.12,11.64,11.64,0,0,1-3.53,5.76A15.63,15.63,0,0,1,50.74,49a17.64,17.64,0,0,1-7.88.26A11.65,11.65,0,0,1,37,45.75,15.54,15.54,0,0,1,33.32,38.3Zm8.34-1.86c.62,2.72,1.57,4.57,2.85,5.52a5.24,5.24,0,0,0,4.54.85,5.25,5.25,0,0,0,3.76-2.69c.72-1.39.73-3.59,0-6.61q-.87-3.81-2.8-5.22a5.39,5.39,0,0,0-4.57-.81,5.18,5.18,0,0,0-3.64,2.71Q40.73,32.32,41.66,36.44Z"/><path class="cls-4" d="M65.19,35a10,10,0,0,1,1.35-8.06A11.56,11.56,0,0,1,74,22.19q5.86-1.34,9.64,1.39a10.08,10.08,0,0,1,4,6.21,10,10,0,0,1-1.31,8.06Q84,41.42,78.69,42.61A11.83,11.83,0,0,1,70.53,42,9.85,9.85,0,0,1,65.19,35Zm7.51-1.73a6.05,6.05,0,0,0,1.93,3.63A3.58,3.58,0,0,0,80,35.71a6.31,6.31,0,0,0,.14-4.19A5.92,5.92,0,0,0,78.19,28a3.37,3.37,0,0,0-2.88-.65,3.47,3.47,0,0,0-2.42,1.88A6,6,0,0,0,72.7,33.27Z"/><path class="cls-4" d="M95.19,46.22l-6.14-27,7-1.59.66,2.89a9.6,9.6,0,0,1,2.11-3.08,7.84,7.84,0,0,1,3.43-1.68A7.15,7.15,0,0,1,109,17.4a12.68,12.68,0,0,1,3.83,6.92c.74,3.26.53,5.91-.64,8a7.87,7.87,0,0,1-5.33,3.91,8.57,8.57,0,0,1-3.29.13,7.76,7.76,0,0,1-2.94-1.17l2.12,9.33Zm3.6-18.86a5.31,5.31,0,0,0,1.76,3.22,3.19,3.19,0,0,0,2.72.56,2.82,2.82,0,0,0,2-1.57,6,6,0,0,0,0-3.86,5.55,5.55,0,0,0-1.71-3.27,2.87,2.87,0,0,0-2.5-.61,3.12,3.12,0,0,0-2.14,1.67A5.78,5.78,0,0,0,98.79,27.36Z"/><path class="cls-4" d="M116,28l7.27-2.39a3.75,3.75,0,0,0,1.72,1.6,4.69,4.69,0,0,0,4.53-1.1,1.46,1.46,0,0,0,.37-1.34,1.41,1.41,0,0,0-1.13-1.06,15.47,15.47,0,0,0-3.39,0,33.73,33.73,0,0,1-5.71,0,5.8,5.8,0,0,1-3-1.37,5.18,5.18,0,0,1-1.76-2.91,5.27,5.27,0,0,1,.37-3.58,6.89,6.89,0,0,1,2.62-2.79,16.61,16.61,0,0,1,5.12-1.89,18.85,18.85,0,0,1,5.28-.64,6.87,6.87,0,0,1,3.16,1A8.86,8.86,0,0,1,134,14.05l-7,2.31a2.47,2.47,0,0,0-1.23-1.17,3.85,3.85,0,0,0-2.27-.1,3.08,3.08,0,0,0-1.75.87,1.42,1.42,0,0,0-.33,1.22,1.2,1.2,0,0,0,1,.92,12.27,12.27,0,0,0,3.35-.07,22.42,22.42,0,0,1,5.82-.08,6.29,6.29,0,0,1,3.28,1.51,5.46,5.46,0,0,1,1.66,2.85,6.17,6.17,0,0,1-.27,3.53,7.15,7.15,0,0,1-2.64,3.28,15.86,15.86,0,0,1-5.78,2.3c-3.57.82-6.22.88-8,.21A7,7,0,0,1,116,28Z"/><path class="cls-4" d="M140.45,3.22l8.21-.05,0,6.3-1.51,12.68-5.08,0L140.49,9.52Zm.4,20.89,7.66-.05,0,6.78-7.66,0Z"/></g><g id="_404" data-name="404"><path class="cls-4" d="M75.28,89.23a.57.57,0,0,1-.18,0c-4.5-1.74-7.19-3.45-8.59-5.49a5.16,5.16,0,0,1-3.23-.45,6.43,6.43,0,0,1-2.78-2.62,2.56,2.56,0,0,1-2.43.37,6.08,6.08,0,0,1-3-2.41,2.22,2.22,0,0,1-1.55.43c-3-.24-7-6.16-7.29-12.46a.5.5,0,1,1,1,0c.28,6,4.11,11.33,6.38,11.52a1.31,1.31,0,0,0,.93-.28,12.26,12.26,0,0,1-1-9.41c.86-3,1.62-4.18,2.53-4,1.72.43,1.49,7,.58,11.29a6,6,0,0,1-.84,2.18,5.4,5.4,0,0,0,2.54,2.21A1.57,1.57,0,0,0,60,79.72c-.78-1.94-.94-4.58.12-7.94,1.41-4.43,2-4.55,2.31-4.62a.64.64,0,0,1,.64.22c.93,1-.18,7.92-1.34,11.32a5,5,0,0,1-.56,1.16,5.53,5.53,0,0,0,2.5,2.5,4.36,4.36,0,0,0,2.27.43c-.09-.19-.17-.38-.25-.58-.79-2.14-.4-4.62,1.19-7.57,1-2,1.91-2.88,2.71-2.88h0a1.11,1.11,0,0,1,1,.67c.88,1.6.24,6.91-1.48,9.55a4,4,0,0,1-1.62,1.4c1.34,1.76,3.89,3.31,7.95,4.89a.5.5,0,0,1,.29.64A.51.51,0,0,1,75.28,89.23ZM69.63,72.76s-.57,0-1.83,2.35C66.35,77.79,66,80,66.67,81.87c.09.22.19.45.3.67a2.9,2.9,0,0,0,1.32-1.11c1.4-2.14,2.07-6.54,1.55-8.25C69.74,72.82,69.63,72.76,69.63,72.76Zm-7.18-4.21a23.82,23.82,0,0,0-1.34,3.53,11.38,11.38,0,0,0-.38,6.55l.09-.25A32.89,32.89,0,0,0,62.45,68.55ZM55.87,65.4c-.17.15-.66.78-1.35,3.22a11.27,11.27,0,0,0,.72,8.25,6.43,6.43,0,0,0,.45-1.41C56.73,70.55,56.43,66.11,55.87,65.4Z"/><path class="cls-4" d="M113.3,141.65a9,9,0,0,1-4.56-1.19.5.5,0,1,1,.5-.86c3.57,2.09,8.18.63,9.13-.9a.87.87,0,0,0,.15-.67,8.12,8.12,0,0,1-5.13-1.46c-2.55-1.59-2.74-2.07-2.73-2.44a.63.63,0,0,1,.34-.53c1-.5,5.51,1.58,7.39,2.81a3.63,3.63,0,0,1,.62.52,3.55,3.55,0,0,0,1.9-1.14,2.83,2.83,0,0,0,.59-1.12l-.2,0c-1.6.16-3.2-.52-4.91-2.1-1.18-1.09-1.63-1.84-1.48-2.43a.91.91,0,0,1,.72-.65c1.38-.35,4.8,1.11,6.19,2.64a2.68,2.68,0,0,1,.64,1.18c1.31-.61,2.69-2,4.32-4.27a.5.5,0,0,1,.7-.11.49.49,0,0,1,.12.69c-1.89,2.64-3.47,4.14-5,4.75a3.69,3.69,0,0,1-.87,2,4.48,4.48,0,0,1-2.18,1.41,1.83,1.83,0,0,1-.28,1.39C118.38,140.59,116,141.65,113.3,141.65Zm-.89-6.94c.34.25.82.58,1.51,1a8,8,0,0,0,3.6,1.32A25.21,25.21,0,0,0,112.41,134.71Zm3.49-4.25a4.33,4.33,0,0,0,1.17,1.39c1.48,1.38,2.84,2,4.13,1.85l.32,0a1.81,1.81,0,0,0-.44-.83C119.68,131.28,116.58,130.3,115.9,130.46Z"/><path class="cls-1" d="M126.54,140.28,111,143.11,96.81,65.89,66.75,71.36l-49,87L23,187.06l62.84-11.41,4.3,23.48,30.07-5.46-4.31-23.48,15.58-2.83ZM47.69,154.6l26-45.57,7.25,39.54Z"/><path class="cls-1" d="M252,60.64a58.65,58.65,0,0,0-3.2-14.21,45.72,45.72,0,0,0-7-12.19,40.26,40.26,0,0,0-12.7-10.37q-8-4.39-21.22-6.11-27.43-3.59-42.78,9.74t-20.2,51a139.33,139.33,0,0,0-1,28.34q1,13,4.78,20.94a43.71,43.71,0,0,0,14.65,17.77q9.47,6.65,26,8.79,29.39,3.83,43.57-11.29T251.71,92A129,129,0,0,0,252,60.64Z"/><path class="cls-4" d="M198.37,144.08c-2.41-.08-5-.29-7.61-.64-9.16-1.19-16.24-3.51-21-6.89a32.6,32.6,0,0,1-11-13.4l-.05-.11c-1.92-4-3.17-9.75-3.73-17a128.29,128.29,0,0,1,.92-26.11c3.57-27.72,10.94-39.28,16.5-44.1,6.47-5.62,15.22-8.16,26.73-7.77,2.35.08,4.85.29,7.42.63,7.38,1,13.23,2.59,17.37,4.85A29.68,29.68,0,0,1,233.18,41a35.25,35.25,0,0,1,5.35,9.27,48.35,48.35,0,0,1,2.57,11.55,119.27,119.27,0,0,1-.3,28.73c-2.77,21.54-8.13,36.67-15.92,45-5.78,6.16-14.45,9-26.51,8.54Z"/><path class="cls-1" d="M217.94,60.94l.13-3.79-2.33-.76a21.83,21.83,0,0,0-.62-3.8l2-1.46-1.34-3.55-2.43.19a23.81,23.81,0,0,0-2-3.27l1.26-2.11L210,39.62l-2.18,1.12a23.17,23.17,0,0,0-3.12-2.26l.35-2.42-3.46-1.57L200,36.35a23.26,23.26,0,0,0-3.75-.88l-.59-2.37-3.8-.13-.75,2.32a24.89,24.89,0,0,0-3.8.62l-1.47-2-3.56,1.33.2,2.44a22.94,22.94,0,0,0-3.27,2l-2.1-1.26-2.78,2.58,1.12,2.19a21.78,21.78,0,0,0-2.25,3.13L170.74,46l-1.58,3.46L171,51.08a22,22,0,0,0-.88,3.75l-2.38.6-.13,3.79L170,60a22.65,22.65,0,0,0,.62,3.8l-2,1.45L170,68.79l2.44-.2a22.11,22.11,0,0,0,2,3.28L173.16,74l2.6,2.77,2.18-1.11a23.51,23.51,0,0,0,3.13,2.26l-.37,2.41,3.46,1.57,1.6-1.85a23.83,23.83,0,0,0,3.75.88l.59,2.37,3.79.13.75-2.33a22.6,22.6,0,0,0,3.81-.62l1.45,2,3.56-1.33-.19-2.43a23.87,23.87,0,0,0,3.27-2l2.1,1.26,2.78-2.59-1.11-2.19A22.48,22.48,0,0,0,212.56,70l2.41.36,1.58-3.46-1.86-1.58a23.26,23.26,0,0,0,.88-3.75Zm-25.6,12.27A15,15,0,1,1,207.88,58.7,15,15,0,0,1,192.34,73.21Z"/><path class="cls-5" d="M233.72,130.52,234,128l-1.54-.62a16,16,0,0,0-.22-2.6l1.4-.88-.72-2.47h-1.66a14.82,14.82,0,0,0-1.19-2.31l.94-1.36-1.6-2-1.53.64a14.55,14.55,0,0,0-2-1.67l.37-1.63L224,111.83,222.83,113a14.84,14.84,0,0,0-2.48-.78l-.28-1.64-2.55-.29-.63,1.54a14.94,14.94,0,0,0-2.59.24l-.89-1.41-2.47.72v1.66a16.34,16.34,0,0,0-2.31,1.2l-1.36-1-2,1.6.64,1.53a17.77,17.77,0,0,0-1.67,2l-1.61-.35-1.24,2.25,1.18,1.16a15,15,0,0,0-.79,2.49l-1.64.27-.27,2.55,1.53.64a14.73,14.73,0,0,0,.23,2.58l-1.41.89.72,2.47h1.66a15.22,15.22,0,0,0,1.2,2.3l-1,1.36,1.61,2,1.54-.65a14.55,14.55,0,0,0,2,1.67l-.37,1.63,2.25,1.23,1.18-1.17a15.68,15.68,0,0,0,2.47.77l.29,1.64,2.55.28.63-1.53a16.2,16.2,0,0,0,2.59-.24l.89,1.41,2.46-.72V141.7a16.34,16.34,0,0,0,2.31-1.2l1.34,1,2-1.6-.65-1.54a16.28,16.28,0,0,0,1.69-2l1.61.36,1.24-2.25-1.18-1.16a17.35,17.35,0,0,0,.78-2.48Zm-12.87-1a4.46,4.46,0,1,1-1.77-6.06A4.47,4.47,0,0,1,220.85,129.53Z"/><path class="cls-6" d="M247.89,87.3l-3-2.06h0a16.42,16.42,0,0,0-1.2-3.11l.76-3-4.32-4.63-3,.56a17,17,0,0,0-3-1.41h0l-1.86-3.12-6.33-.21-2.05,3h0a16.59,16.59,0,0,0-3.1,1.2l-3-.77-4.63,4.33.55,3h0a16.3,16.3,0,0,0-1.41,3L209.14,86l-.22,6.33,3,2.06a15.62,15.62,0,0,0,1.2,3.12h0l-.76,3,4.32,4.63,3-.55a16.53,16.53,0,0,0,3,1.41h0l1.85,3.11,6.33.22,2.05-3a16,16,0,0,0,3.13-1.2h0l3,.76,4.64-4.32-.56-3a16.39,16.39,0,0,0,1.41-3h0l3.11-1.85Zm-19.73,9.63a7.12,7.12,0,1,1,7.36-6.88A7.14,7.14,0,0,1,228.16,96.93Z"/><path class="cls-1" d="M269.64,36.78l.52-1.26h0a6.7,6.7,0,0,0,1-.69l1.16.05,1.36-2-.44-1.08a6.18,6.18,0,0,0,.28-1.22h0l1-.92-.42-2.35-1.26-.52h0a6.65,6.65,0,0,0-.68-1l0-1.17-1.95-1.35-1.07.44h0a5.55,5.55,0,0,0-1.22-.28l-.92-1-2.34.42-.52,1.26a6.17,6.17,0,0,0-1.06.68h0l-1.15,0-1.36,1.95.44,1.07a6.12,6.12,0,0,0-.28,1.23h0l-1,.92.42,2.34,1.26.52a6.17,6.17,0,0,0,.68,1.06h0l0,1.15,1.95,1.36,1.07-.44a7.31,7.31,0,0,0,1.23.28h0l.92,1Zm-5.08-6.49a2.67,2.67,0,1,1,3.1,2.16A2.68,2.68,0,0,1,264.56,30.29Z"/><path class="cls-1" d="M242.21,30.14l-.77-.64a19.89,19.89,0,0,1,6-5l.47.88A19,19,0,0,0,242.21,30.14Z"/><path class="cls-1" d="M250.19,24.45l-.39-.92a23.92,23.92,0,0,1,11.74-1.88l-.1,1A22.79,22.79,0,0,0,250.19,24.45Z"/><path class="cls-1" d="M248.3,31.37l-.82-.56a16.78,16.78,0,0,1,9.87-6.39l.19,1A15.72,15.72,0,0,0,248.3,31.37Z"/><path class="cls-6" d="M181.94,127.61a.51.51,0,0,1-.35-.15l-2.1-2.16a18.43,18.43,0,0,1-3.15-.59l-3.26,1.44a.51.51,0,0,1-.48,0l-5.48-3.63a.5.5,0,0,1-.22-.42l0-3.57a17.11,17.11,0,0,1-1.76-2.67l-2.81-1.09a.51.51,0,0,1-.31-.37l-1.3-6.44a.47.47,0,0,1,.14-.45l2.16-2.1a18.78,18.78,0,0,1,.58-3.15L162.21,99a.54.54,0,0,1,0-.48L165.88,93a.47.47,0,0,1,.43-.22l3.56,0a18.2,18.2,0,0,1,2.68-1.76l1.09-2.81A.51.51,0,0,1,174,88l6.44-1.3a.49.49,0,0,1,.46.14L183,89a17.76,17.76,0,0,1,3.16.58l3.26-1.44a.51.51,0,0,1,.48,0l5.47,3.62a.54.54,0,0,1,.23.43l-.06,3.56a17.26,17.26,0,0,1,1.77,2.68l2.8,1.09a.49.49,0,0,1,.31.36l1.31,6.44a.52.52,0,0,1-.14.46l-2.17,2.1a17.16,17.16,0,0,1-.58,3.14l1.44,3.27a.51.51,0,0,1,0,.48l-3.63,5.47a.52.52,0,0,1-.42.23l-3.57-.06a17.11,17.11,0,0,1-2.67,1.76L188.85,126a.49.49,0,0,1-.37.31L182,127.6Zm-5.63-3.93.14,0a17.42,17.42,0,0,0,3.31.62.5.5,0,0,1,.32.15l2,2.09,5.9-1.19,1.06-2.73a.53.53,0,0,1,.24-.27,16.05,16.05,0,0,0,2.81-1.85.49.49,0,0,1,.33-.11l3.47,0,3.33-5-1.41-3.18a.5.5,0,0,1,0-.34,16.6,16.6,0,0,0,.61-3.31.53.53,0,0,1,.15-.32l2.1-2-1.19-5.9-2.73-1.06a.49.49,0,0,1-.27-.24,16,16,0,0,0-1.85-2.8.57.57,0,0,1-.11-.33l.05-3.47-5-3.33-3.17,1.4a.5.5,0,0,1-.34,0,17.27,17.27,0,0,0-3.33-.61.51.51,0,0,1-.31-.15l-2-2.1-5.9,1.2-1.06,2.72a.47.47,0,0,1-.23.27,16.52,16.52,0,0,0-2.82,1.85.44.44,0,0,1-.32.12l-3.47-.06-3.33,5,1.4,3.18a.5.5,0,0,1,0,.43,17.27,17.27,0,0,0-.58,3.23.5.5,0,0,1-.15.32l-2.1,2,1.2,5.9,2.72,1.06a.51.51,0,0,1,.28.26,16.22,16.22,0,0,0,1.84,2.79.5.5,0,0,1,.12.33l-.06,3.47,5,3.33,3.19-1.41A.45.45,0,0,1,176.31,123.68Zm4.92-3.24a13.32,13.32,0,0,1-11.1-20.68h0a13.33,13.33,0,1,1,11.1,20.68ZM171,100.32a12.32,12.32,0,1,0,17.08-3.47A12.24,12.24,0,0,0,171,100.32Z"/><path class="cls-1" d="M372.43,149.3l-15.7-2.12,10.38-77.81-30.28-4.08-73.45,67.62-3.86,28.93,63.29,8.55-3.16,23.66,30.29,4.08,3.15-23.66,15.7,2.12ZM293,138.58l38.76-35.32-5.32,39.84Z"/><path class="cls-4" d="M340.73,197.39h-.09a.51.51,0,0,1-.4-.59L363.57,68.87a.51.51,0,0,1,.58-.4.5.5,0,0,1,.4.58L341.23,197A.51.51,0,0,1,340.73,197.39Z"/><path class="cls-4" d="M361.43,71a.81.81,0,0,1-.84.79.82.82,0,0,1-.8-.84.83.83,0,0,1,.85-.8A.82.82,0,0,1,361.43,71Z"/><path class="cls-4" d="M358.1,88.32a.82.82,0,1,1-.79-.84A.81.81,0,0,1,358.1,88.32Z"/><path class="cls-4" d="M354.77,105.62a.82.82,0,0,1-.85.79.82.82,0,1,1,.85-.79Z"/><path class="cls-4" d="M348.21,123.63a.82.82,0,1,1-.79-.84A.8.8,0,0,1,348.21,123.63Z"/><path class="cls-4" d="M348.1,140.22a.82.82,0,0,1-.84.8.83.83,0,0,1-.8-.85.82.82,0,0,1,.85-.79A.81.81,0,0,1,348.1,140.22Z"/><path class="cls-4" d="M344.77,157.53a.82.82,0,1,1-.79-.85A.81.81,0,0,1,344.77,157.53Z"/><path class="cls-4" d="M341.44,174.83a.82.82,0,1,1-1.64-.06.82.82,0,1,1,1.64.06Z"/><path class="cls-4" d="M338.11,192.13a.82.82,0,1,1-1.64-.06.81.81,0,0,1,.84-.79A.83.83,0,0,1,338.11,192.13Z"/><path class="cls-4" d="M347.4,124.11a.5.5,0,0,1-.11-1l2.48-.54a.51.51,0,0,1,.6.39.5.5,0,0,1-.39.59l-2.48.54Z"/><path class="cls-4" d="M355.69,114.89a84.28,84.28,0,0,0-3,9.36c-.75,3.54-.79,11.43-.79,11.43"/><path class="cls-4" d="M351.9,136.18h0a.49.49,0,0,1-.49-.5c0-.33.05-8,.81-11.53a82.74,82.74,0,0,1,3-9.44.51.51,0,0,1,.65-.28.49.49,0,0,1,.28.64,85.15,85.15,0,0,0-3,9.29c-.73,3.44-.78,11.24-.78,11.32A.51.51,0,0,1,351.9,136.18Z"/></g><g id="Character"><path class="cls-4" d="M169.05,222.49c1.39-22.4-1.16-63.12,40.95-57.73,45.13,5.77,32.22,58.55,32.22,58.55Z"/><circle class="cls-6" cx="198.11" cy="190.65" r="18.38"/><path class="cls-4" d="M200.53,172.31c-8.71-1.49-18,4.92-18.93,11.42l34.51,3.18C214.89,179.5,207.43,173.48,200.53,172.31Z"/><path class="cls-4" d="M212.18,190.19c-.25,4.81-2.87,8.58-5.85,8.43s-5.2-4.18-5-9,2.87-8.57,5.85-8.42S212.42,185.39,212.18,190.19Z"/><path class="cls-1" d="M198.11,210a19.38,19.38,0,1,1,19.38-19.38A19.39,19.39,0,0,1,198.11,210Zm0-36.75a17.38,17.38,0,1,0,17.38,17.37A17.39,17.39,0,0,0,198.11,173.28Z"/><path class="cls-7" d="M237.09,221.93H237a.51.51,0,0,1-.37-.61c0-.13,3.22-13.69-.09-27.4a.5.5,0,1,1,1-.24c3.37,14,.13,27.74.09,27.88A.49.49,0,0,1,237.09,221.93Z"/><path class="cls-7" d="M234.3,186.41a.52.52,0,0,1-.46-.29,35.17,35.17,0,0,0-4.74-7.66.5.5,0,0,1,.07-.7.5.5,0,0,1,.71.07,36.47,36.47,0,0,1,4.87,7.87.49.49,0,0,1-.24.66A.41.41,0,0,1,234.3,186.41Z"/><path class="cls-4" d="M75.34,327.57H75a5,5,0,1,1,.28-10h.09c2.89,0,9.84-3.51,24.38-26.43a5,5,0,0,1,7.51-1.09,207.46,207.46,0,0,0,37.14,25.48,5,5,0,1,1-4.52,8.91A213.22,213.22,0,0,1,105,301.3C92.86,319.62,83.81,327.57,75.34,327.57Z"/><path class="cls-4" d="M106.27,289.15l-.43,0a3,3,0,0,1-2.54-3.39c.71-5-.17-23.63-6.48-38.13a3,3,0,0,1,1.06-3.67c13.7-9.34,42.88-10.46,44.12-10.5a3,3,0,0,1,.21,6c-.27,0-25.78,1-38.89,8.2,5.58,14.44,6.85,32.44,5.92,38.95A3,3,0,0,1,106.27,289.15Z"/><path class="cls-1" d="M111.31,285.27c-2-4.71-11-4.17-16.27-.14-2.82,2.15-6.64,8.64-7,11a3.54,3.54,0,0,0,4,4.24c3.45-.3,8.18-5.31,8.18-5.31-3.14,3.09.92,5.27,7,.8C110.55,293.37,113.55,290.54,111.31,285.27Z"/><path class="cls-4" d="M283.31,223.81a.32.32,0,0,1-.14,0,.48.48,0,0,1-.34-.61c1.33-4.64,2.78-7.48,4.7-9.06a5.14,5.14,0,0,1,.15-3.25,6.43,6.43,0,0,1,2.36-3,2.56,2.56,0,0,1-.59-2.38,6.18,6.18,0,0,1,2.14-3.16,2.24,2.24,0,0,1-.57-1.51c0-3,5.51-7.52,11.76-8.37a.48.48,0,0,1,.56.42.5.5,0,0,1-.42.57c-5.94.81-10.92,5.11-10.9,7.38a1.3,1.3,0,0,0,.36.9,12.21,12.21,0,0,1,9.28-1.86c3.07.58,4.32,1.23,4.18,2.16-.28,1.76-6.81,2.12-11.19,1.6a6.18,6.18,0,0,1-2.25-.65,5.38,5.38,0,0,0-2,2.73,1.58,1.58,0,0,0,.49,1.64c1.86-1,4.47-1.36,7.92-.6,4.54,1,4.7,1.56,4.81,1.89a.68.68,0,0,1-.16.66c-1,1-7.91.53-11.4-.33a4.91,4.91,0,0,1-1.21-.45,5.49,5.49,0,0,0-2.26,2.71,4.32,4.32,0,0,0-.23,2.3l.55-.29c2.07-1,4.57-.82,7.66.5,2,.88,3,1.65,3.1,2.44a1.1,1.1,0,0,1-.57,1c-1.52,1-6.87.86-9.65-.62a4,4,0,0,1-1.54-1.48c-1.63,1.49-2.95,4.16-4.15,8.35A.51.51,0,0,1,283.31,223.81Zm5.42-9.33A3,3,0,0,0,290,215.7c2.26,1.2,6.7,1.47,8.36.8.34-.14.39-.25.39-.25s-.05-.56-2.5-1.61c-2.8-1.2-5-1.37-6.83-.52C289.15,214.23,288.94,214.35,288.73,214.48Zm3.34-6.57.25.07a32.78,32.78,0,0,0,9.94.75,21.7,21.7,0,0,0-3.64-1A11.38,11.38,0,0,0,292.07,207.91Zm1.26-5.62a5.92,5.92,0,0,0,1.43.32c5,.59,9.39-.1,10-.72-.17-.16-.84-.59-3.32-1.06A11.26,11.26,0,0,0,293.33,202.29Z"/><path class="cls-4" d="M153.13,325.9c.66-.21.44-.85-.3-.85H139.29c-25.78-2.73-43.79.93-32.44,1.79s-.8.69-9.09,3.82,61.65,3.93,68,0C171.64,327,144,328.83,153.13,325.9Z"/><polygon class="cls-1" points="250.07 329.89 132.27 325.99 127.38 211.76 266.49 214.87 250.07 329.89"/><path class="cls-4" d="M169.05,327.7a.5.5,0,0,1-.5-.45l-9.44-114.73a.5.5,0,0,1,1-.08l9.44,114.72a.5.5,0,0,1-.46.54Z"/><polygon class="cls-1" points="250.07 329.89 281.73 325.07 291.7 218.86 266.49 214.87 250.07 329.89"/><polygon class="cls-8" points="250.07 329.89 281.73 325.07 291.7 218.86 266.49 214.87 250.07 329.89"/><path class="cls-4" d="M142.34,304l-2.91-67.86A12.26,12.26,0,0,1,152,223.32l88.06,2a12.27,12.27,0,0,1,11.87,14l-9.76,68.4a12.27,12.27,0,0,1-12.55,10.52l-75.39-2.49A12.27,12.27,0,0,1,142.34,304Z"/><path class="cls-6" d="M151.85,244.14l13.62.43-.11,3.52-8.53-.28-.08,2.62,7.91.25-.11,3.36-7.91-.25-.1,3.24,8.77.28L165.2,261l-13.88-.44Z"/><path class="cls-6" d="M168,261.12l.52-16.45,8.48.27a12.16,12.16,0,0,1,3.59.52,3.86,3.86,0,0,1,2,1.56,4.64,4.64,0,0,1-1.64,6.59,6.06,6.06,0,0,1-1.81.6,5.08,5.08,0,0,1,1.31.65,4.92,4.92,0,0,1,.78.89,6.43,6.43,0,0,1,.68,1l2.31,4.85-5.74-.19-2.56-5.11A3.8,3.8,0,0,0,175,255a2.22,2.22,0,0,0-1.23-.42h-.45l-.21,6.68Zm5.42-9.62,2.14.07a9.63,9.63,0,0,0,1.36-.18,1.38,1.38,0,0,0,.84-.49,1.67,1.67,0,0,0-.12-2.19,3.09,3.09,0,0,0-1.88-.48l-2.23-.08Z"/><path class="cls-6" d="M185.88,261.69l.52-16.45,8.47.27a12.11,12.11,0,0,1,3.59.52,3.79,3.79,0,0,1,2,1.56,4.54,4.54,0,0,1,.67,2.69,4.42,4.42,0,0,1-2.31,3.9,6.16,6.16,0,0,1-1.81.6,5.12,5.12,0,0,1,1.31.64,5.51,5.51,0,0,1,.78.9,6.43,6.43,0,0,1,.68,1l2.31,4.85-5.74-.19-2.56-5.11a3.94,3.94,0,0,0-.88-1.3,2.22,2.22,0,0,0-1.23-.42h-.45l-.22,6.67Zm5.42-9.62,2.14.07a8.63,8.63,0,0,0,1.35-.19,1.31,1.31,0,0,0,.84-.49,1.46,1.46,0,0,0,.35-.94,1.5,1.5,0,0,0-.46-1.24,3.1,3.1,0,0,0-1.88-.49l-2.24-.07Z"/><path class="cls-6" d="M202.92,254a7.79,7.79,0,0,1,8.76-8.25,8.6,8.6,0,0,1,6.26,2.41,8.32,8.32,0,0,1,2,6.25,10.21,10.21,0,0,1-1.12,4.7,6.88,6.88,0,0,1-2.9,2.78,9.22,9.22,0,0,1-4.61.88,10.49,10.49,0,0,1-4.57-1,6.92,6.92,0,0,1-2.87-2.9A9.28,9.28,0,0,1,202.92,254Zm5.08.18a5.54,5.54,0,0,0,.81,3.61,3.52,3.52,0,0,0,5.06.19,6.11,6.11,0,0,0,1-3.8,5.12,5.12,0,0,0-.83-3.43,3.24,3.24,0,0,0-2.51-1.15,3.1,3.1,0,0,0-2.5,1A5.49,5.49,0,0,0,208,254.19Z"/><path class="cls-6" d="M222.51,262.86,223,246.4l8.47.27a12.45,12.45,0,0,1,3.59.52,3.86,3.86,0,0,1,2,1.57,4.51,4.51,0,0,1,.67,2.68,4.42,4.42,0,0,1-2.31,3.91,6.18,6.18,0,0,1-1.81.59,5.08,5.08,0,0,1,1.31.65,5.32,5.32,0,0,1,.78.89,6,6,0,0,1,.68,1l2.31,4.84-5.74-.18-2.56-5.12a3.77,3.77,0,0,0-.88-1.29,2.08,2.08,0,0,0-1.23-.42l-.45,0-.22,6.68Zm5.42-9.63,2.14.07a7.21,7.21,0,0,0,1.35-.18,1.35,1.35,0,0,0,.84-.49,1.46,1.46,0,0,0,.35-.94,1.49,1.49,0,0,0-.46-1.24,3,3,0,0,0-1.88-.49l-2.24-.07Z"/><path class="cls-6" d="M230.6,290.81a1.28,1.28,0,0,1-1-.43L221.07,281l-9.24,8.44a1.31,1.31,0,0,1-1.85-.08L201.42,280l-9.24,8.44a1.31,1.31,0,0,1-1.85-.08L181.77,279l-9.24,8.44a1.32,1.32,0,0,1-.94.34,1.34,1.34,0,0,1-.92-.42L162.11,278l-9.23,8.44a1.31,1.31,0,1,1-1.77-1.94l10.2-9.33a1.31,1.31,0,0,1,1.86.09l8.56,9.37,9.23-8.44a1.35,1.35,0,0,1,.95-.35,1.33,1.33,0,0,1,.91.43l8.56,9.37,9.24-8.44a1.31,1.31,0,0,1,1.85.08l8.56,9.37,9.24-8.44a1.31,1.31,0,0,1,1.85.08l9.45,10.34a1.31,1.31,0,0,1-.09,1.86A1.28,1.28,0,0,1,230.6,290.81Z"/><polygon class="cls-1" points="72.35 332.32 66.09 329.33 60.51 302.17 63.54 298.83 72.35 332.32"/><polygon class="cls-1" points="72.35 332.32 80.66 327.47 73.54 305.08 63.54 298.83 72.35 332.32"/><polygon class="cls-8" points="72.35 332.32 80.66 327.47 73.54 305.08 63.54 298.83 72.35 332.32"/><path class="cls-4" d="M208.55,337.26h-.69a5,5,0,0,1,.27-10c7.71.25,24-4.48,33.32-13.52a5,5,0,0,1,2.05-1.2c15.79-4.74,21.66,4.83,21.9,5.24l-8.6,5.09a1.34,1.34,0,0,0,.11.19c-.09-.14-2.33-3-9.45-1.24C235.77,332.47,217.83,337.26,208.55,337.26Z"/><polygon class="cls-1" points="208 343.9 189.78 342.76 188.35 309.18 212.82 310.1 208 343.9"/><polygon class="cls-1" points="208 343.9 212.25 339.67 214.89 318.73 212.82 310.1 208 343.9"/><polygon class="cls-8" points="208 343.9 212.25 339.67 214.89 318.73 212.82 310.1 208 343.9"/><path class="cls-4" d="M313.51,331.19a3,3,0,0,1-1.81-.61c-10.4-7.9-24.45-21.93-29.84-35.46a3.25,3.25,0,0,1-.17-.61c-2.63-15.64-5.14-48.54-5.25-49.94a3,3,0,0,1,6-.45c0,.34,2.56,33.57,5.12,49.07,5.38,13.16,20,26.67,27.78,32.61a3,3,0,0,1-1.82,5.39Z"/><path class="cls-4" d="M327.38,332.7c-2.32,0-4.95-1.05-7.82-3.12a3,3,0,0,1,3.52-4.86c2.48,1.79,3.83,2,4.3,2a3,3,0,0,1,0,6Z"/><path class="cls-1" d="M320.41,329.49c3.21-9.53,16.37-7.65,20.9-6.23a48.2,48.2,0,0,1,11.07,4.8c2.45,1.61,2.49,4.29-.78,5.82-4,1.89-14.16.21-14.16.21,5.24,2.3,0,6-9.21,2.36C325.24,335.28,319.27,333,320.41,329.49Z"/><path class="cls-4" d="M288.46,248.69c-1.19,8.1-7.9,14.07-13.35,13.27s-5.69-8-4.5-16.14,3.35-14,8.81-13.2S289.65,240.59,288.46,248.69Z"/><circle class="cls-4" cx="156.48" cy="215.53" r="0.82"/><path class="cls-4" d="M164.81,221.43a.82.82,0,1,1-.82-.82A.82.82,0,0,1,164.81,221.43Z"/><path class="cls-4" d="M165.73,318.33a.82.82,0,1,1-.82-.82A.82.82,0,0,1,165.73,318.33Z"/><path class="cls-4" d="M173.24,324.24a.82.82,0,1,1-.82-.82A.82.82,0,0,1,173.24,324.24Z"/></g><g id="Robot_Parts" data-name="Robot Parts"><path class="cls-4" d="M29.11,334.07a9.62,9.62,0,0,1-7.33-3.95.49.49,0,0,1,.12-.69.51.51,0,0,1,.7.12c1.87,2.7,6,4.13,7.81,3.28a1.35,1.35,0,0,0,.46-.34A6.05,6.05,0,0,1,27.35,328c-.23-1.26-.41-3,.64-3.21,1.43-.33,3.31,3.14,4,5.77a3.78,3.78,0,0,1,.13,1.34,4.3,4.3,0,0,0,1.79.14,1.94,1.94,0,0,0,1.37-.74A5.86,5.86,0,0,1,33,327.12c-.38-2.73-.09-3.21.21-3.44a.66.66,0,0,1,.69-.08c1.07.45,2.36,4.33,2.61,6.53a2.66,2.66,0,0,1,0,.69,3.91,3.91,0,0,0,1.35.26,4.29,4.29,0,0,0,2.41-.63,3.69,3.69,0,0,1-.4-.29c-1-.89-1.46-2.31-1.28-4.33.14-1.57.49-2.43,1.12-2.7a1.16,1.16,0,0,1,1.21.24,6.93,6.93,0,0,1,1.73,5.56,2.89,2.89,0,0,1-.51,1.15c1.84.32,4.42-.2,6.65-.75a.5.5,0,0,1,.6.37.48.48,0,0,1-.36.6c-2.71.67-5.63,1.22-7.69.62a5.69,5.69,0,0,1-3.5,1.16,4.6,4.6,0,0,1-1.64-.31,2.79,2.79,0,0,1-2.12,1.28,5.53,5.53,0,0,1-2.24-.2,2.21,2.21,0,0,1-1,.89A4.16,4.16,0,0,1,29.11,334.07Zm-.86-8.28a4.33,4.33,0,0,0,.08,2,5.09,5.09,0,0,0,2.84,3.71,2.78,2.78,0,0,0-.12-.71C30.27,328,28.78,326,28.25,325.79Zm5.57-.87A13.26,13.26,0,0,0,34,327a5.12,5.12,0,0,0,1.51,3.22A15.72,15.72,0,0,0,33.82,324.92Zm6.29-.87h0s-.38.19-.52,1.86.16,2.83.93,3.49a3.06,3.06,0,0,0,.6.38,2.15,2.15,0,0,0,.54-1,6.26,6.26,0,0,0-1.19-4.43C40.27,324.1,40.14,324.05,40.11,324.05Z"/><polygon class="cls-4" points="175.47 341.63 178.18 336.93 175.47 332.23 172.57 332.23 174.21 336.93 172.57 341.63 175.47 341.63"/><path class="cls-4" d="M172.76,339.38a2.45,2.45,0,1,1,0-4.89l-4.6-.92-1.23,3.72,2.06,3.14Z"/><path class="cls-1" d="M173.16,332.23h-5.43l-2.71,4.7,2.71,4.7h5.43l2.71-4.7Zm-2.71,7.15a2.45,2.45,0,1,1,2.44-2.45A2.45,2.45,0,0,1,170.45,339.38Z"/><polygon class="cls-1" points="364.49 331.92 362.48 328.43 364.49 324.94 366.64 324.94 365.43 328.43 366.64 331.92 364.49 331.92"/><path class="cls-1" d="M366.5,330.25a1.82,1.82,0,0,0,0-3.64l3.43-.68.9,2.76L369.31,331Z"/><path class="cls-4" d="M366.21,324.94h4l2,3.49-2,3.49h-4l-2-3.49Zm2,5.31a1.82,1.82,0,1,0-1.81-1.82A1.82,1.82,0,0,0,368.22,330.25Z"/><path class="cls-4" d="M289.55,336.55h4.52a2.15,2.15,0,0,0,2.14-2.14h0a2.15,2.15,0,0,0-2.14-2.14h-4.52a2.14,2.14,0,0,0-2.14,2.14h0A2.14,2.14,0,0,0,289.55,336.55Z"/><path class="cls-1" d="M282.33,332.51a4.46,4.46,0,1,1,2,6.19A4.6,4.6,0,0,1,282.33,332.51Z"/><rect class="cls-4" x="285.67" y="329.36" width="1.37" height="10.1" transform="translate(402.75 759) rotate(-154.76)"/></g></g></svg>